P3
8 8
250
0 250 0
0 250 0
0 250 0
0 250 0
0 250 0
0 250 0
0 250 0
0 250 0
0 250 0
0 250 0
0 250 0
0 250 0
0 250 0
0 250 0
0 250 0
0 250 0
0 250 0
0 50 0
0 50 0
0 250 0
0 250 0
0 50 0
0 50 0
0 250 0
0 250 0
0 50 0
0 0 0
0 250 0
0 250 0
0 0 0
0 50 0
0 250 0
0 250 0
0 250 0
0 250 0
0 50 0
0 50 0
0 250 0
0 250 0
0 250 0
0 250 0
0 250 0
0 50 0
0 0 0
0 0 0
0 50 0
0 250 0
0 250 0
0 250 0
0 250 0
0 0 0
0 0 0
0 0 0
0 0 0
0 250 0
0 250 0
0 250 0
0 250 0
0 50 0
0 250 0
0 250 0
0 50 0
0 250 0
0 250 0
